<?xml version="1.0" encoding="UTF-8"?>
<svg xmlns="http://www.w3.org/2000/svg" xmlns:xlink="http://www.w3.org/1999/xlink" width="4002" height="2002" viewBox="0 0 4002 2002">
<path fill="none" stroke-width="5.0003" stroke-linecap="butt" stroke-linejoin="miter" stroke="rgb(13.729858%, 12.159729%, 12.548828%)" stroke-opacity="1" stroke-miterlimit="2.61313" d="M 10 20010 L 40010 20010 L 40010 10 L 10 10 Z M 10 20010 " transform="matrix(0.1, 0, 0, -0.1, 0, 2002)"/>
<path fill-rule="evenodd" fill="rgb(0%, 0%, 0%)" fill-opacity="1" d="M 2001 1 L 4001 1 L 4001 2001 L 2001 2001 L 2001 1 "/>
<path fill="none" stroke-width="5.0003" stroke-linecap="butt" stroke-linejoin="miter" stroke="rgb(13.729858%, 12.159729%, 12.548828%)" stroke-opacity="1" stroke-miterlimit="2.61313" d="M 20010 20010 L 40010 20010 L 40010 10 L 20010 10 Z M 20010 20010 " transform="matrix(0.1, 0, 0, -0.1, 0, 2002)"/>
<path fill-rule="nonzero" fill="rgb(100%, 100%, 100%)" fill-opacity="1" d="M 3285.980469 1109.492188 L 3269.371094 1187.316406 L 3147.628906 1241.5625 L 3191.910156 1123.640625 Z M 2973.328125 1626 C 2953.039062 1608.707031 2933.671875 1589.839844 2915.230469 1569.394531 C 2896.78125 1548.957031 2880.179688 1527.730469 2865.421875 1505.714844 C 2887.558594 1493.140625 2909.230469 1484.09375 2930.441406 1478.59375 C 2951.660156 1473.089844 2975.179688 1470.34375 3001 1470.34375 C 3048.960938 1470.34375 3094.148438 1482.128906 3136.570312 1505.714844 C 3107.058594 1551.316406 3072.011719 1591.410156 3031.429688 1626 L 3031.429688 1668.453125 L 2973.328125 1668.453125 Z M 3031.429688 1668.453125 L 3117.199219 1668.453125 L 3294.269531 1449.117188 L 3305.351562 1307.605469 L 3355.148438 1371.285156 L 3590.328125 1076.472656 L 3548.820312 1005.714844 L 3247.238281 880.710938 L 3053.570312 1069.394531 L 3001 1201.472656 L 2948.421875 1069.394531 L 2754.75 880.710938 L 2455.941406 1005.714844 L 2411.671875 1076.472656 L 2649.609375 1371.285156 L 2699.410156 1307.605469 L 2707.71875 1449.117188 L 2884.789062 1668.453125 Z M 3518.378906 774.578125 L 3701 1083.546875 L 3167.011719 1751 L 2834.988281 1751 L 2301 1083.546875 L 2483.609375 774.578125 L 2621.949219 251 L 2876.488281 597.699219 L 3131.039062 597.699219 L 3377.28125 251 Z M 3432.609375 736.851562 L 3346.839844 427.878906 L 3255.550781 633.078125 Z M 2751.980469 633.078125 L 2655.148438 427.878906 L 2569.378906 736.851562 Z M 2807.320312 1123.640625 L 2857.128906 1241.5625 L 2729.851562 1187.316406 L 2718.78125 1109.492188 L 2807.320312 1123.640625 "/>
<path fill-rule="nonzero" fill="rgb(0%, 0%, 0%)" fill-opacity="1" d="M 1280.640625 1109.492188 L 1264.03125 1187.316406 L 1142.300781 1241.5625 L 1186.570312 1123.640625 Z M 967.988281 1626 C 947.699219 1608.707031 928.335938 1589.839844 909.886719 1569.394531 C 891.441406 1548.957031 874.84375 1527.730469 860.085938 1505.714844 C 882.21875 1493.140625 903.894531 1484.09375 925.101562 1478.59375 C 946.316406 1473.089844 969.839844 1470.34375 995.65625 1470.34375 C 1043.621094 1470.34375 1088.808594 1482.128906 1131.230469 1505.714844 C 1101.71875 1551.316406 1066.679688 1591.410156 1026.101562 1626 L 1026.101562 1668.453125 L 967.988281 1668.453125 Z M 1026.101562 1668.453125 L 1111.871094 1668.453125 L 1288.941406 1449.117188 L 1300.011719 1307.605469 L 1349.808594 1371.285156 L 1584.988281 1076.472656 L 1543.488281 1005.714844 L 1241.898438 880.710938 L 1048.230469 1069.394531 L 995.65625 1201.472656 L 943.085938 1069.394531 L 749.414062 880.710938 L 450.597656 1005.714844 L 406.332031 1076.472656 L 644.269531 1371.285156 L 694.074219 1307.605469 L 702.378906 1449.117188 L 879.449219 1668.453125 Z M 1513.050781 774.578125 L 1695.660156 1083.546875 L 1161.671875 1751 L 829.65625 1751 L 295.660156 1083.546875 L 478.269531 774.578125 L 616.609375 251 L 871.152344 597.699219 L 1125.699219 597.699219 L 1371.949219 251 Z M 1427.28125 736.851562 L 1341.511719 427.878906 L 1250.210938 633.078125 Z M 746.644531 633.078125 L 649.808594 427.878906 L 564.039062 736.851562 Z M 801.984375 1123.640625 L 851.785156 1241.5625 L 724.511719 1187.316406 L 713.445312 1109.492188 L 801.984375 1123.640625 "/>
</svg>
